<?xml version="1.0" encoding="utf-8"?>
<!-- Generator: Adobe Illustrator 16.0.0, SVG Export Plug-In . SVG Version: 6.00 Build 0)  -->
<!DOCTYPE svg PUBLIC "-//W3C//DTD SVG 1.1//EN" "http://www.w3.org/Graphics/SVG/1.1/DTD/svg11.dtd">
<svg version="1.1" xmlns="http://www.w3.org/2000/svg" xmlns:xlink="http://www.w3.org/1999/xlink" x="0px" y="0px" width="265px"
	 height="256px" viewBox="0 0 265 256" enable-background="new 0 0 265 256" xml:space="preserve">
<g id="Layer_1">
	
		<rect x="11.43" y="6.954" fill="#FFFFFF" stroke="#000000" stroke-width="2" stroke-miterlimit="10" width="243.314" height="243.314"/>
	<circle fill="#FFFFFF" stroke="#000000" stroke-width="2" stroke-miterlimit="10" cx="133.087" cy="128.61" r="121.657"/>
</g>
<g id="Layer_2">
	<circle stroke="#000000" stroke-width="0.5" stroke-miterlimit="10" cx="45.375" cy="97.167" r="3.125"/>
	<circle stroke="#000000" stroke-width="0.5" stroke-miterlimit="10" cx="40.375" cy="139.167" r="3.125"/>
	<circle stroke="#000000" stroke-width="0.5" stroke-miterlimit="10" cx="99.208" cy="118.167" r="3.125"/>
	<circle stroke="#000000" stroke-width="0.5" stroke-miterlimit="10" cx="94.208" cy="160.167" r="3.125"/>
	<circle stroke="#000000" stroke-width="0.5" stroke-miterlimit="10" cx="80.875" cy="67.333" r="3.125"/>
	<circle stroke="#000000" stroke-width="0.5" stroke-miterlimit="10" cx="75.875" cy="109.333" r="3.125"/>
	<circle stroke="#000000" stroke-width="0.5" stroke-miterlimit="10" cx="134.709" cy="88.333" r="3.125"/>
	<circle stroke="#000000" stroke-width="0.5" stroke-miterlimit="10" cx="129.708" cy="130.334" r="3.125"/>
	<circle stroke="#000000" stroke-width="0.5" stroke-miterlimit="10" cx="16.378" cy="119.837" r="3.125"/>
	<circle stroke="#000000" stroke-width="0.5" stroke-miterlimit="10" cx="70.208" cy="128.167" r="3.125"/>
	<circle stroke="#000000" stroke-width="0.5" stroke-miterlimit="10" cx="65.208" cy="170.167" r="3.125"/>
	<circle stroke="#000000" stroke-width="0.5" stroke-miterlimit="10" cx="116.542" cy="158.583" r="3.125"/>
	<circle stroke="#000000" stroke-width="0.5" stroke-miterlimit="10" cx="111.542" cy="200.583" r="3.125"/>
	<circle stroke="#000000" stroke-width="0.5" stroke-miterlimit="10" cx="170.376" cy="179.583" r="3.126"/>
	<circle stroke="#000000" stroke-width="0.5" stroke-miterlimit="10" cx="165.376" cy="221.583" r="3.126"/>
	<circle stroke="#000000" stroke-width="0.5" stroke-miterlimit="10" cx="152.042" cy="128.75" r="3.125"/>
	<circle stroke="#000000" stroke-width="0.5" stroke-miterlimit="10" cx="147.042" cy="170.75" r="3.125"/>
	<circle stroke="#000000" stroke-width="0.5" stroke-miterlimit="10" cx="205.875" cy="149.75" r="3.125"/>
	<circle stroke="#000000" stroke-width="0.5" stroke-miterlimit="10" cx="200.876" cy="191.75" r="3.126"/>
	<circle stroke="#000000" stroke-width="0.5" stroke-miterlimit="10" cx="85.875" cy="180.187" r="3.125"/>
	<circle stroke="#000000" stroke-width="0.5" stroke-miterlimit="10" cx="82.542" cy="210.583" r="3.125"/>
	<circle stroke="#000000" stroke-width="0.5" stroke-miterlimit="10" cx="141.376" cy="189.583" r="3.126"/>
	<circle stroke="#000000" stroke-width="0.5" stroke-miterlimit="10" cx="136.376" cy="231.583" r="3.126"/>
	<circle stroke="#000000" stroke-width="0.5" stroke-miterlimit="10" cx="140.958" cy="24.167" r="3.125"/>
	<circle stroke="#000000" stroke-width="0.5" stroke-miterlimit="10" cx="135.958" cy="66.167" r="3.125"/>
	<circle stroke="#000000" stroke-width="0.5" stroke-miterlimit="10" cx="194.792" cy="45.167" r="3.126"/>
	<circle stroke="#000000" stroke-width="0.5" stroke-miterlimit="10" cx="189.792" cy="87.167" r="3.126"/>
	<circle stroke="#000000" stroke-width="0.5" stroke-miterlimit="10" cx="171.458" cy="36.333" r="3.125"/>
	<circle fill="#FF0000" stroke="#000000" stroke-width="0.5" stroke-miterlimit="10" cx="205.875" cy="16.572" r="3.125"/>
	<path stroke="#000000" stroke-width="0.5" stroke-miterlimit="10" d="M228.418,57.334c0,1.725-1.398,3.124-3.126,3.124
		s-3.126-1.399-3.126-3.124c0-1.729,1.398-3.126,3.126-3.126S228.418,55.605,228.418,57.334z"/>
	<circle stroke="#000000" stroke-width="0.5" stroke-miterlimit="10" cx="111.958" cy="34.167" r="3.125"/>
	<circle stroke="#000000" stroke-width="0.5" stroke-miterlimit="10" cx="106.958" cy="76.167" r="3.125"/>
	<circle stroke="#000000" stroke-width="0.5" stroke-miterlimit="10" cx="165.792" cy="55.167" r="3.126"/>
	<circle stroke="#000000" stroke-width="0.5" stroke-miterlimit="10" cx="160.792" cy="97.167" r="3.126"/>
	<circle stroke="#000000" stroke-width="0.5" stroke-miterlimit="10" cx="212.126" cy="85.583" r="3.126"/>
	<circle stroke="#000000" stroke-width="0.5" stroke-miterlimit="10" cx="207.126" cy="127.583" r="3.126"/>
	<circle fill="#FF0000" stroke="#000000" stroke-width="0.5" stroke-miterlimit="10" cx="247.625" cy="55.749" r="3.125"/>
	<path stroke="#000000" stroke-width="0.5" stroke-miterlimit="10" d="M245.751,97.751c0,1.724-1.399,3.123-3.125,3.123
		c-1.727,0-3.126-1.399-3.126-3.123c0-1.729,1.399-3.128,3.126-3.128C244.352,94.623,245.751,96.022,245.751,97.751z"/>
	<circle stroke="#000000" stroke-width="0.5" stroke-miterlimit="10" cx="183.126" cy="95.583" r="3.126"/>
	<circle stroke="#000000" stroke-width="0.5" stroke-miterlimit="10" cx="178.126" cy="137.582" r="3.126"/>
	<circle stroke="#000000" stroke-width="0.5" stroke-miterlimit="10" cx="236.959" cy="116.583" r="3.126"/>
	<circle stroke="#000000" stroke-width="0.5" stroke-miterlimit="10" cx="231.959" cy="158.582" r="3.126"/>
	<circle stroke="#000000" stroke-width="0.5" stroke-miterlimit="10" cx="58.31" cy="58.666" r="3.125"/>
	<circle fill="#FF0000" stroke="#000000" stroke-width="0.5" stroke-miterlimit="10" cx="62.443" cy="16.573" r="3.125"/>
	<circle stroke="#000000" stroke-width="0.5" stroke-miterlimit="10" cx="23.432" cy="89.225" r="3.125"/>
	<path fill="#FF0000" stroke="#000000" stroke-width="0.5" stroke-miterlimit="10" d="M13.25,64.563
		c-0.036-1.725,1.333-3.151,3.059-3.188c1.727-0.036,3.153,1.334,3.19,3.058c0.035,1.729-1.334,3.157-3.06,3.191
		C14.713,67.661,13.286,66.291,13.25,64.563z"/>
	<circle stroke="#000000" stroke-width="0.5" stroke-miterlimit="10" cx="87.097" cy="48.071" r="3.125"/>
	<circle fill="#FF0000" stroke="#000000" stroke-width="0.5" stroke-miterlimit="10" cx="29.208" cy="38" r="3.125"/>
	<circle stroke="#000000" stroke-width="0.5" stroke-miterlimit="10" cx="200.305" cy="212.25" r="3.127"/>
	<path stroke="#000000" stroke-width="0.5" stroke-miterlimit="10" d="M210.814,179.048c-0.038-1.729,1.333-3.155,3.059-3.19
		c1.727-0.036,3.155,1.333,3.188,3.061c0.038,1.727-1.333,3.155-3.057,3.19C212.275,182.142,210.848,180.772,210.814,179.048z"/>
	<path fill="#FF0000" stroke="#000000" stroke-width="0.5" stroke-miterlimit="10" d="M230.502,212.311
		c-0.038-1.723,1.333-3.151,3.057-3.187c1.728-0.036,3.154,1.333,3.189,3.059c0.038,1.729-1.334,3.157-3.062,3.192
		C231.964,215.408,230.535,214.039,230.502,212.311z"/>
	<circle stroke="#000000" stroke-width="0.5" stroke-miterlimit="10" cx="34.716" cy="161.915" r="3.125"/>
	<path stroke="#000000" stroke-width="0.5" stroke-miterlimit="10" d="M175.934,209.605c-0.032-1.727,1.338-3.152,3.062-3.189
		c1.726-0.037,3.153,1.334,3.19,3.059c0.033,1.729-1.333,3.156-3.062,3.193C177.398,212.701,175.971,211.334,175.934,209.605z"/>
	<circle fill="#FF0000" stroke="#000000" stroke-width="0.5" stroke-miterlimit="10" cx="247.626" cy="185.188" r="3.125"/>
	<circle stroke="#000000" stroke-width="0.5" stroke-miterlimit="10" cx="60.697" cy="220.92" r="3.126"/>
	<circle stroke="#000000" stroke-width="0.5" stroke-miterlimit="10" cx="44.484" cy="181.854" r="3.126"/>
	<path fill="#FF0000" stroke="#000000" stroke-width="0.5" stroke-miterlimit="10" d="M22.373,215.445
		c-0.844-1.503-0.31-3.407,1.194-4.253c1.506-0.848,3.411-0.312,4.255,1.192c0.847,1.505,0.313,3.412-1.193,4.256
		C25.125,217.487,23.221,216.954,22.373,215.445z"/>
	<circle fill="#FF0000" stroke="#000000" stroke-width="0.5" stroke-miterlimit="10" cx="16.375" cy="191.75" r="3.126"/>
	<circle fill="#FF0000" stroke="#000000" stroke-width="0.5" stroke-miterlimit="10" cx="27.541" cy="238.584" r="3.125"/>
	<circle fill="#FF0000" stroke="#000000" stroke-width="0.5" stroke-miterlimit="10" cx="59.976" cy="241.042" r="3.125"/>
	<circle fill="#FF0000" stroke="#000000" stroke-width="0.5" stroke-miterlimit="10" cx="200.304" cy="241.042" r="3.125"/>
	<circle fill="#FF0000" stroke="#000000" stroke-width="0.5" stroke-miterlimit="10" cx="236.958" cy="238.584" r="3.125"/>
	<circle fill="#FF0000" stroke="#000000" stroke-width="0.5" stroke-miterlimit="10" cx="19.708" cy="19.031" r="3.125"/>
	<circle fill="#FF0000" stroke="#000000" stroke-width="0.5" stroke-miterlimit="10" cx="45.375" cy="19.113" r="3.125"/>
	<circle fill="#FF0000" stroke="#000000" stroke-width="0.5" stroke-miterlimit="10" cx="219.125" cy="30.643" r="3.125"/>
	<circle fill="#FF0000" stroke="#000000" stroke-width="0.5" stroke-miterlimit="10" cx="241.458" cy="29.059" r="3.125"/>
	<circle stroke="#000000" stroke-width="0.5" stroke-miterlimit="10" cx="45.378" cy="97.17" r="3.126"/>
	<circle stroke="#000000" stroke-width="0.5" stroke-miterlimit="10" cx="40.378" cy="139.164" r="3.126"/>
	<circle stroke="#000000" stroke-width="0.5" stroke-miterlimit="10" cx="99.211" cy="118.17" r="3.126"/>
	<circle stroke="#000000" stroke-width="0.5" stroke-miterlimit="10" cx="94.211" cy="160.164" r="3.126"/>
	<circle stroke="#000000" stroke-width="0.5" stroke-miterlimit="10" cx="80.878" cy="67.336" r="3.126"/>
	<circle stroke="#000000" stroke-width="0.5" stroke-miterlimit="10" cx="75.878" cy="109.336" r="3.126"/>
	<circle stroke="#000000" stroke-width="0.5" stroke-miterlimit="10" cx="134.706" cy="88.336" r="3.125"/>
	<circle stroke="#000000" stroke-width="0.5" stroke-miterlimit="10" cx="129.709" cy="130.331" r="3.123"/>
	<circle stroke="#000000" stroke-width="0.5" stroke-miterlimit="10" cx="25.099" cy="124.25" r="3.126"/>
	<path stroke="#000000" stroke-width="0.5" stroke-miterlimit="10" d="M73.337,128.167c0,1.728-1.399,3.12-3.126,3.12
		s-3.126-1.393-3.126-3.12c0-1.721,1.399-3.12,3.126-3.12S73.337,126.446,73.337,128.167z"/>
	<circle stroke="#000000" stroke-width="0.5" stroke-miterlimit="10" cx="65.211" cy="170.164" r="3.126"/>
	<circle stroke="#000000" stroke-width="0.5" stroke-miterlimit="10" cx="116.545" cy="158.58" r="3.126"/>
	<circle stroke="#000000" stroke-width="0.5" stroke-miterlimit="10" cx="111.545" cy="200.58" r="3.126"/>
	<circle stroke="#000000" stroke-width="0.5" stroke-miterlimit="10" cx="170.373" cy="179.58" r="3.126"/>
	<circle stroke="#000000" stroke-width="0.5" stroke-miterlimit="10" cx="165.373" cy="221.58" r="3.126"/>
	<ellipse stroke="#000000" stroke-width="0.5" stroke-miterlimit="10" cx="152.04" cy="128.75" rx="3.125" ry="3.119"/>
	<path stroke="#000000" stroke-width="0.5" stroke-miterlimit="10" d="M150.165,170.748c0,1.725-1.399,3.124-3.125,3.124
		c-1.727,0-3.126-1.399-3.126-3.124c0-1.729,1.399-3.128,3.126-3.128C148.766,167.62,150.165,169.02,150.165,170.748z"/>
	<path stroke="#000000" stroke-width="0.5" stroke-miterlimit="10" d="M208.998,149.748c0,1.725-1.399,3.124-3.125,3.124
		c-1.727,0-3.126-1.399-3.126-3.124c0-1.729,1.399-3.128,3.126-3.128C207.599,146.62,208.998,148.02,208.998,149.748z"/>
	<path stroke="#000000" stroke-width="0.5" stroke-miterlimit="10" d="M203.999,191.748c0,1.725-1.399,3.124-3.126,3.124
		s-3.126-1.399-3.126-3.124c0-1.729,1.399-3.128,3.126-3.128S203.999,190.02,203.999,191.748z"/>
	<circle stroke="#000000" stroke-width="0.5" stroke-miterlimit="10" cx="85.878" cy="180.184" r="3.126"/>
	<circle stroke="#000000" stroke-width="0.5" stroke-miterlimit="10" cx="82.545" cy="210.58" r="3.126"/>
	<circle stroke="#000000" stroke-width="0.5" stroke-miterlimit="10" cx="141.373" cy="189.58" r="3.126"/>
	<circle stroke="#000000" stroke-width="0.5" stroke-miterlimit="10" cx="136.373" cy="231.58" r="3.126"/>
	<circle stroke="#000000" stroke-width="0.5" stroke-miterlimit="10" cx="140.956" cy="24.169" r="3.125"/>
	<circle stroke="#000000" stroke-width="0.5" stroke-miterlimit="10" cx="135.956" cy="66.169" r="3.125"/>
	<circle stroke="#000000" stroke-width="0.5" stroke-miterlimit="10" cx="194.789" cy="45.169" r="3.126"/>
	<circle stroke="#000000" stroke-width="0.5" stroke-miterlimit="10" cx="189.789" cy="87.169" r="3.126"/>
	<circle stroke="#000000" stroke-width="0.5" stroke-miterlimit="10" cx="171.456" cy="36.336" r="3.125"/>
	<circle fill="#FF0000" stroke="#000000" stroke-width="0.5" stroke-miterlimit="10" cx="198.634" cy="13.24" r="3.125"/>
	<path stroke="#000000" stroke-width="0.5" stroke-miterlimit="10" d="M228.415,57.336c0,1.725-1.399,3.124-3.126,3.124
		s-3.126-1.399-3.126-3.124c0-1.729,1.399-3.125,3.126-3.125S228.415,55.607,228.415,57.336z"/>
	<circle stroke="#000000" stroke-width="0.5" stroke-miterlimit="10" cx="111.961" cy="34.169" r="3.126"/>
	<circle stroke="#000000" stroke-width="0.5" stroke-miterlimit="10" cx="106.961" cy="76.169" r="3.126"/>
	<circle stroke="#000000" stroke-width="0.5" stroke-miterlimit="10" cx="165.789" cy="55.169" r="3.126"/>
	<circle stroke="#000000" stroke-width="0.5" stroke-miterlimit="10" cx="160.789" cy="97.169" r="3.126"/>
	<circle stroke="#000000" stroke-width="0.5" stroke-miterlimit="10" cx="212.123" cy="85.585" r="3.126"/>
	<circle stroke="#000000" stroke-width="0.5" stroke-miterlimit="10" cx="207.123" cy="127.585" r="3.126"/>
	<circle fill="#FF0000" stroke="#000000" stroke-width="0.5" stroke-miterlimit="10" cx="247.623" cy="55.752" r="3.125"/>
	<path stroke="#000000" stroke-width="0.5" stroke-miterlimit="10" d="M245.748,97.752c0,1.726-1.399,3.125-3.125,3.125
		c-1.727,0-3.126-1.399-3.126-3.125c0-1.729,1.399-3.127,3.126-3.127C244.349,94.625,245.748,96.024,245.748,97.752z"/>
	<circle stroke="#000000" stroke-width="0.5" stroke-miterlimit="10" cx="183.123" cy="95.585" r="3.126"/>
	<path stroke="#000000" stroke-width="0.5" stroke-miterlimit="10" d="M181.249,137.578c0,1.729-1.399,3.128-3.126,3.128
		s-3.126-1.399-3.126-3.128c0-1.725,1.399-3.124,3.126-3.124S181.249,135.854,181.249,137.578z"/>
	<circle stroke="#000000" stroke-width="0.5" stroke-miterlimit="10" cx="236.956" cy="116.585" r="3.126"/>
	<path stroke="#000000" stroke-width="0.5" stroke-miterlimit="10" d="M235.082,158.578c0,1.729-1.398,3.128-3.126,3.128
		s-3.126-1.399-3.126-3.128c0-1.725,1.398-3.124,3.126-3.124S235.082,156.854,235.082,158.578z"/>
	<circle stroke="#000000" stroke-width="0.5" stroke-miterlimit="10" cx="58.312" cy="58.669" r="3.125"/>
	<circle fill="#FF0000" stroke="#000000" stroke-width="0.5" stroke-miterlimit="10" cx="62.446" cy="16.575" r="3.125"/>
	<circle stroke="#000000" stroke-width="0.5" stroke-miterlimit="10" cx="23.435" cy="89.228" r="3.125"/>
	<path fill="#FF0000" stroke="#000000" stroke-width="0.5" stroke-miterlimit="10" d="M13.253,64.565
		c-0.035-1.725,1.334-3.153,3.06-3.188c1.727-0.037,3.153,1.333,3.189,3.058c0.035,1.729-1.334,3.157-3.06,3.191
		C14.716,67.664,13.29,66.294,13.253,64.565z"/>
	<circle stroke="#000000" stroke-width="0.5" stroke-miterlimit="10" cx="87.1" cy="48.074" r="3.125"/>
	<circle fill="#FF0000" stroke="#000000" stroke-width="0.5" stroke-miterlimit="10" cx="29.21" cy="38.002" r="3.125"/>
	<circle stroke="#000000" stroke-width="0.5" stroke-miterlimit="10" cx="200.302" cy="212.247" r="3.127"/>
	<path stroke="#000000" stroke-width="0.5" stroke-miterlimit="10" d="M210.811,179.045c-0.035-1.729,1.332-3.155,3.06-3.19
		c1.728-0.036,3.155,1.333,3.188,3.061c0.035,1.727-1.332,3.155-3.059,3.19C212.271,182.139,210.846,180.77,210.811,179.045z"/>
	<path fill="#FF0000" stroke="#000000" stroke-width="0.5" stroke-miterlimit="10" d="M230.498,212.308
		c-0.035-1.723,1.332-3.151,3.059-3.187c1.727-0.036,3.152,1.333,3.189,3.059c0.035,1.729-1.336,3.157-3.061,3.192
		C231.961,215.405,230.533,214.036,230.498,212.308z"/>
	<circle stroke="#000000" stroke-width="0.5" stroke-miterlimit="10" cx="34.719" cy="161.913" r="3.125"/>
	<path stroke="#000000" stroke-width="0.5" stroke-miterlimit="10" d="M175.931,209.601c-0.032-1.724,1.337-3.151,3.062-3.188
		c1.726-0.036,3.154,1.336,3.19,3.059c0.035,1.729-1.333,3.157-3.062,3.193C177.396,212.7,175.967,211.329,175.931,209.601z"/>
	<path fill="#FF0000" stroke="#000000" stroke-width="0.5" stroke-miterlimit="10" d="M244.5,185.25
		c-0.038-1.726,1.333-3.154,3.059-3.19c1.727-0.035,3.155,1.336,3.188,3.062c0.038,1.726-1.333,3.154-3.059,3.19
		C245.961,188.347,244.533,186.976,244.5,185.25z"/>
	<circle stroke="#000000" stroke-width="0.5" stroke-miterlimit="10" cx="60.699" cy="220.917" r="3.126"/>
	<circle stroke="#000000" stroke-width="0.5" stroke-miterlimit="10" cx="44.487" cy="181.852" r="3.126"/>
	<path fill="#FF0000" stroke="#000000" stroke-width="0.5" stroke-miterlimit="10" d="M22.376,215.442
		c-0.845-1.505-0.31-3.409,1.193-4.253c1.507-0.848,3.411-0.313,4.256,1.193c0.847,1.504,0.313,3.411-1.192,4.255
		C25.127,217.482,23.223,216.951,22.376,215.442z"/>
	<circle fill="#FF0000" stroke="#000000" stroke-width="0.5" stroke-miterlimit="10" cx="16.378" cy="191.748" r="3.125"/>
	<circle fill="#FF0000" stroke="#000000" stroke-width="0.5" stroke-miterlimit="10" cx="27.544" cy="238.581" r="3.126"/>
	<circle fill="#FF0000" stroke="#000000" stroke-width="0.5" stroke-miterlimit="10" cx="59.979" cy="241.039" r="3.125"/>
	<circle fill="#FF0000" stroke="#000000" stroke-width="0.5" stroke-miterlimit="10" cx="200.301" cy="241.039" r="3.125"/>
	<circle fill="#FF0000" stroke="#000000" stroke-width="0.5" stroke-miterlimit="10" cx="236.956" cy="238.581" r="3.125"/>
	<circle fill="#FF0000" stroke="#000000" stroke-width="0.5" stroke-miterlimit="10" cx="19.711" cy="19.033" r="3.126"/>
	<circle fill="#FF0000" stroke="#000000" stroke-width="0.5" stroke-miterlimit="10" cx="45.378" cy="19.116" r="3.126"/>
	<circle fill="#FF0000" stroke="#000000" stroke-width="0.5" stroke-miterlimit="10" cx="219.122" cy="30.646" r="3.125"/>
	<circle fill="#FF0000" stroke="#000000" stroke-width="0.5" stroke-miterlimit="10" cx="241.456" cy="29.062" r="3.125"/>
</g>
</svg>
